<?xml version="1.0" standalone="no"?>
<!DOCTYPE svg PUBLIC "-//W3C//DTD SVG 20010904//EN"
 "http://www.w3.org/TR/2001/REC-SVG-20010904/DTD/svg10.dtd">
<svg version="1.0" xmlns="http://www.w3.org/2000/svg"
 width="72.000000pt" height="72.000000pt" viewBox="0 0 72.000000 72.000000"
 preserveAspectRatio="xMidYMid meet">
<metadata>
Created by potrace 1.10, written by Peter Selinger 2001-2011
</metadata>
<g transform="translate(0.000000,72.000000) scale(0.100000,-0.100000)"
fill="#000000" stroke="none">
<path d="M618 638 l-28 -20 0 -214 c0 -118 -3 -214 -7 -214 -3 0 -47 31 -97
68 -50 38 -97 72 -103 76 -8 4 -36 -11 -72 -38 -33 -25 -62 -46 -65 -46 -3 0
-6 42 -6 93 0 95 -4 107 -45 130 -6 3 -10 -56 -10 -169 0 -96 1 -174 3 -174 2
0 39 27 84 61 44 33 86 63 92 65 6 2 72 -40 146 -94 l135 -99 3 148 c1 82 1
216 0 298 l-3 149 -27 -20z"/>
<path d="M92 349 c-3 -278 -2 -290 15 -281 51 27 52 36 51 237 -1 105 -5 201
-10 214 l-9 24 28 -18 c24 -16 119 -85 341 -247 l52 -39 0 181 0 182 -29 -24
c-29 -22 -30 -25 -30 -115 -1 -51 -3 -93 -5 -93 -3 0 -87 61 -188 135 -101 74
-190 135 -198 135 -13 0 -15 -40 -18 -291z"/>
</g>
</svg>
